HIERARCHY
ROOT Hips
{
  OFFSET 5.80788e-005 67.184 3.4734
  CHANNELS 6 Xposition Yposition Zposition Zrotation Xrotation Yrotation
  JOINT Chest
  {
    OFFSET 0 8.7983 -4.7612
    CHANNELS 6 Xposition Yposition Zposition Zrotation Xrotation Yrotation
    JOINT Chest2
    {
      OFFSET 0 8.0291 0.4195
      CHANNELS 6 Xposition Yposition Zposition Zrotation Xrotation Yrotation
      JOINT Chest3
      {
        OFFSET 0 9.9351 -2.2114
        CHANNELS 6 Xposition Yposition Zposition Zrotation Xrotation Yrotation
        JOINT Neck
        {
          OFFSET 0 22.3885 -0.4656
          CHANNELS 6 Xposition Yposition Zposition Zrotation Xrotation Yrotation
          JOINT Head
          {
            OFFSET -0.0001 12.643 3.4389
            CHANNELS 6 Xposition Yposition Zposition Zrotation Xrotation Yrotation
            End Site
            {
              OFFSET 0.0001 17.6655 0.5274
            }
          }
        }
        JOINT LeftCollar
        {
          OFFSET 2.2603 21.606 7.4023
          CHANNELS 6 Xposition Yposition Zposition Zrotation Xrotation Yrotation
          JOINT LeftShoulder
          {
            OFFSET 13.5163 -1.1332 -5.0146
            CHANNELS 6 Xposition Yposition Zposition Zrotation Xrotation Yrotation
            JOINT LeftElbow
            {
              OFFSET -0.0995 -28.05 -0.2431
              CHANNELS 6 Xposition Yposition Zposition Zrotation Xrotation Yrotation
              JOINT LeftWrist
              {
                OFFSET 0.0679 -23.3996 -0.1402
                CHANNELS 6 Xposition Yposition Zposition Zrotation Xrotation Yrotation
                JOINT LeftFinger1
                {
                  OFFSET 0.7932 -9.069 2.5189
                  CHANNELS 6 Xposition Yposition Zposition Zrotation Xrotation Yrotation
                  JOINT LeftFinger11
                  {
                    OFFSET -0.8272 -3.3923 0.5977
                    CHANNELS 6 Xposition Yposition Zposition Zrotation Xrotation Yrotation
                    JOINT LeftFinger12
                    {
                      OFFSET -0.5649 -2.3158 0.4082
                      CHANNELS 6 Xposition Yposition Zposition Zrotation Xrotation Yrotation
                      End Site
                      {
                        OFFSET -0.4919 -1.6479 0.2673
                      }
                    }
                  }
                }
                JOINT LeftFinger2
                {
                  OFFSET 0.9159 -9.2044 0.2193
                  CHANNELS 6 Xposition Yposition Zposition Zrotation Xrotation Yrotation
                  JOINT LeftFinger21
                  {
                    OFFSET 0.0117 -4.1944 -0.0248
                    CHANNELS 6 Xposition Yposition Zposition Zrotation Xrotation Yrotation
                    JOINT LeftFinger22
                    {
                      OFFSET 0.0071 -2.3249 -0.0142
                      CHANNELS 6 Xposition Yposition Zposition Zrotation Xrotation Yrotation
                      End Site
                      {
                        OFFSET -0.1475 -2.0882 0.0028
                      }
                    }
                  }
                }
                JOINT LeftFinger3
                {
                  OFFSET 0.6113 -8.7231 -2.0637
                  CHANNELS 6 Xposition Yposition Zposition Zrotation Xrotation Yrotation
                  JOINT LeftFinger31
                  {
                    OFFSET -0.1927 -3.8059 -0.2383
                    CHANNELS 6 Xposition Yposition Zposition Zrotation Xrotation Yrotation
                    JOINT LeftFinger32
                    {
                      OFFSET -0.1091 -2.1688 -0.1362
                      CHANNELS 6 Xposition Yposition Zposition Zrotation Xrotation Yrotation
                      End Site
                      {
                        OFFSET -0.2358 -1.9176 -0.0906
                      }
                    }
                  }
                }
                JOINT LeftFinger4
                {
                  OFFSET -0.6151 -8.0947 -3.5641
                  CHANNELS 6 Xposition Yposition Zposition Zrotation Xrotation Yrotation
                  JOINT LeftFinger41
                  {
                    OFFSET -0.4882 -2.341 -0.6462
                    CHANNELS 6 Xposition Yposition Zposition Zrotation Xrotation Yrotation
                    JOINT LeftFinger42
                    {
                      OFFSET -0.3575 -1.7167 -0.4742
                      CHANNELS 6 Xposition Yposition Zposition Zrotation Xrotation Yrotation
                      End Site
                      {
                        OFFSET -0.4187 -1.5237 -0.3496
                      }
                    }
                  }
                }
                JOINT LeftFinger0
                {
                  OFFSET -1.42 -1.8761 1.4223
                  CHANNELS 6 Xposition Yposition Zposition Zrotation Xrotation Yrotation
                  JOINT LeftFinger01
                  {
                    OFFSET -1.1471 -3.4929 2.6334
                    CHANNELS 6 Xposition Yposition Zposition Zrotation Xrotation Yrotation
                    JOINT LeftFinger02
                    {
                      OFFSET -0.823 -2.3 1.6571
                      CHANNELS 6 Xposition Yposition Zposition Zrotation Xrotation Yrotation
                      End Site
                      {
                        OFFSET -0.5822 -1.6914 1.1582
                      }
                    }
                  }
                }
              }
            }
          }
        }
        JOINT RightCollar
        {
          OFFSET -2.2603 21.606 7.4023
          CHANNELS 6 Xposition Yposition Zposition Zrotation Xrotation Yrotation
          JOINT RightShoulder
          {
            OFFSET -13.5187 -1.1334 -5.0155
            CHANNELS 6 Xposition Yposition Zposition Zrotation Xrotation Yrotation
            JOINT RightElbow
            {
              OFFSET 0.0994 -28.0499 -0.2431
              CHANNELS 6 Xposition Yposition Zposition Zrotation Xrotation Yrotation
              JOINT RightWrist
              {
                OFFSET -0.0679 -23.3996 -0.1402
                CHANNELS 6 Xposition Yposition Zposition Zrotation Xrotation Yrotation
                JOINT RightFinger1
                {
                  OFFSET -0.7932 -9.0691 2.5189
                  CHANNELS 6 Xposition Yposition Zposition Zrotation Xrotation Yrotation
                  JOINT RightFinger11
                  {
                    OFFSET 0.8272 -3.3923 0.5977
                    CHANNELS 6 Xposition Yposition Zposition Zrotation Xrotation Yrotation
                    JOINT RightFinger12
                    {
                      OFFSET 0.565 -2.3158 0.4082
                      CHANNELS 6 Xposition Yposition Zposition Zrotation Xrotation Yrotation
                      End Site
                      {
                        OFFSET 0.4919 -1.6479 0.2673
                      }
                    }
                  }
                }
                JOINT RightFinger2
                {
                  OFFSET -0.916 -9.2044 0.2193
                  CHANNELS 6 Xposition Yposition Zposition Zrotation Xrotation Yrotation
                  JOINT RightFinger21
                  {
                    OFFSET -0.0117 -4.1944 -0.0248
                    CHANNELS 6 Xposition Yposition Zposition Zrotation Xrotation Yrotation
                    JOINT RightFinger22
                    {
                      OFFSET -0.0071 -2.3249 -0.0142
                      CHANNELS 6 Xposition Yposition Zposition Zrotation Xrotation Yrotation
                      End Site
                      {
                        OFFSET 0.1475 -2.0882 0.0028
                      }
                    }
                  }
                }
                JOINT RightFinger3
                {
                  OFFSET -0.6113 -8.7231 -2.0637
                  CHANNELS 6 Xposition Yposition Zposition Zrotation Xrotation Yrotation
                  JOINT RightFinger31
                  {
                    OFFSET 0.1927 -3.8059 -0.2383
                    CHANNELS 6 Xposition Yposition Zposition Zrotation Xrotation Yrotation
                    JOINT RightFinger32
                    {
                      OFFSET 0.1091 -2.1688 -0.1362
                      CHANNELS 6 Xposition Yposition Zposition Zrotation Xrotation Yrotation
                      End Site
                      {
                        OFFSET 0.2358 -1.9176 -0.0906
                      }
                    }
                  }
                }
                JOINT RightFinger4
                {
                  OFFSET 0.6151 -8.0947 -3.564
                  CHANNELS 6 Xposition Yposition Zposition Zrotation Xrotation Yrotation
                  JOINT RightFinger41
                  {
                    OFFSET 0.4882 -2.341 -0.6462
                    CHANNELS 6 Xposition Yposition Zposition Zrotation Xrotation Yrotation
                    JOINT RightFinger42
                    {
                      OFFSET 0.3574 -1.7166 -0.4742
                      CHANNELS 6 Xposition Yposition Zposition Zrotation Xrotation Yrotation
                      End Site
                      {
                        OFFSET 0.4187 -1.5237 -0.3496
                      }
                    }
                  }
                }
                JOINT RightFinger0
                {
                  OFFSET 1.4199 -1.8761 1.4221
                  CHANNELS 6 Xposition Yposition Zposition Zrotation Xrotation Yrotation
                  JOINT RightFinger01
                  {
                    OFFSET 1.1472 -3.4929 2.6336
                    CHANNELS 6 Xposition Yposition Zposition Zrotation Xrotation Yrotation
                    JOINT RightFinger02
                    {
                      OFFSET 0.8229 -2.3 1.6571
                      CHANNELS 6 Xposition Yposition Zposition Zrotation Xrotation Yrotation
                      End Site
                      {
                        OFFSET 0.5822 -1.6914 1.1582
                      }
                    }
                  }
                }
              }
            }
          }
        }
      }
    }
  }
  JOINT RightHip
  {
    OFFSET -9.412 3.9771 -0.7758
    CHANNELS 6 Xposition Yposition Zposition Zrotation Xrotation Yrotation
    JOINT RightKnee
    {
      OFFSET -0.7531 -40.938 0
      CHANNELS 6 Xposition Yposition Zposition Zrotation Xrotation Yrotation
      JOINT RightAnkle
      {
        OFFSET 0 -40.1986 0
        CHANNELS 6 Xposition Yposition Zposition Zrotation Xrotation Yrotation
        JOINT RightToe
        {
          OFFSET 0 -4.4182 9.239
          CHANNELS 6 Xposition Yposition Zposition Zrotation Xrotation Yrotation
          End Site
          {
            OFFSET 0 0 6.1981
          }
        }
      }
    }
  }
  JOINT LeftHip
  {
    OFFSET 9.4119 3.9773 -0.7758
    CHANNELS 6 Xposition Yposition Zposition Zrotation Xrotation Yrotation
    JOINT LeftKnee
    {
      OFFSET 0.7532 -40.9383 0
      CHANNELS 6 Xposition Yposition Zposition Zrotation Xrotation Yrotation
      JOINT LeftAnkle
      {
        OFFSET 0 -40.1986 0
        CHANNELS 6 Xposition Yposition Zposition Zrotation Xrotation Yrotation
        JOINT LeftToe
        {
          OFFSET 0 -4.4182 9.239
          CHANNELS 6 Xposition Yposition Zposition Zrotation Xrotation Yrotation
          End Site
          {
            OFFSET 0 0 6.1981
          }
        }
      }
    }
  }
}
MOTION
Frames:	4
Frame Time:	0.0333333
-75.6601 4.32621 7.84137 -180 -85.9956 -180 0 8.7983 -4.7612 -0.416722 2.68032 -0.165168 1.42109e-014 8.0291 0.4195 -0.827056 5.36173 -0.311302 1.42109e-014 9.9351 -2.2114 -0.827057 5.36174 -0.311303 -1.42109e-014 22.3885 -0.4656 -9.91536e-007 28.997 -6.23827e-007 -0.0001 12.643 3.4389 5.01387 29.5919 -2.50963 2.2603 21.606 7.4023 18.2992 3.80143 -11.1444 13.5163 -1.1332 -5.0146 127.575 14.9038 5.49265 -0.0995 -28.05 -0.2431 -132.181 -59.8195 -120.039 0.0679 -23.3996 -0.1402 -36.6106 -3.29331 49.7692 0.7932 -9.069 2.5189 -3.95898e-006 2.6099e-005 4.87393e-006 -0.8272 -3.3923 0.5977 6.75945e-006 -9.38319e-006 -4.25105e-006 -0.5649 -2.3158 0.4082 -3.58514e-006 1.19181e-005 1.16805e-005 0.9159 -9.2044 0.2193 -3.95898e-006 2.6099e-005 4.87393e-006 0.0117 -4.1944 -0.0248 -0.012833 0.00232734 8.69827e-005 0.0071 -2.3249 -0.0142 3.18055e-015 3.18055e-015 -3.97569e-015 0.6113 -8.7231 -2.0637 -3.95898e-006 2.6099e-005 4.87393e-006 -0.1927 -3.8059 -0.2383 -0.0160058 0.00296922 0.000854307 -0.1091 -2.1688 -0.1362 3.18055e-015 -4.77083e-015 -6.36111e-015 -0.6151 -8.0947 -3.5641 -3.95898e-006 2.6099e-005 4.87393e-006 -0.4882 -2.341 -0.6462 -0.0125747 0.0031092 0.00282326 -0.3575 -1.7167 -0.4742 -3.18055e-015 -3.18055e-015 3.18055e-015 -1.42 -1.8761 1.4223 -3.95898e-006 2.6099e-005 4.87393e-006 -1.1471 -3.4929 2.6334 6.75945e-006 -9.38319e-006 -4.25105e-006 -0.823 -2.3 1.6571 -3.58514e-006 1.19181e-005 1.16805e-005 -2.2603 21.606 7.4023 -21.0598 3.3663 7.47213 -13.5187 -1.1334 -5.0155 -122.775 9.001 -8.44985 0.0994 -28.0499 -0.2431 100.126 -65.0004 91.0833 -0.0679 -23.3996 -0.1402 38.3655 -11.5248 -43.5801 -0.7932 -9.0691 2.5189 1.06447e-005 -3.41734e-006 3.221e-006 0.8272 -3.3923 0.5977 2.64834e-031 1.59028e-015 -9.54166e-015 0.565 -2.3158 0.4082 9.54166e-015 4.77083e-015 -3.18055e-015 -0.916 -9.2044 0.2193 1.06447e-005 -3.41734e-006 3.221e-006 -0.0117 -4.1944 -0.0248 0.013018 0.00234396 -9.04195e-005 -0.0071 -2.3249 -0.0142 1.32417e-031 4.77083e-015 -1.59028e-015 -0.6113 -8.7231 -2.0637 1.06447e-005 -3.41734e-006 3.221e-006 0.1927 -3.8059 -0.2383 0.0163201 0.00304181 -0.000882139 0.1091 -2.1688 -0.1362 -3.18055e-015 -3.18055e-015 6.36111e-015 0.6151 -8.0947 -3.564 1.06447e-005 -3.41734e-006 3.221e-006 0.4882 -2.341 -0.6462 0.0146118 0.0036892 -0.00327204 0.3574 -1.7166 -0.4742 3.97252e-031 4.77083e-015 -4.77083e-015 1.4199 -1.8761 1.4221 1.06447e-005 -3.41734e-006 3.221e-006 1.1472 -3.4929 2.6336 2.64834e-031 1.59028e-015 -9.54166e-015 0.8229 -2.3 1.6571 9.54166e-015 4.77083e-015 -3.18055e-015 -9.412 3.9771 -0.7758 -12.2718 -30.1881 -7.50718 -0.7531 -40.938 -3.10862e-015 158.912 65.3599 -164.598 -1.42109e-014 -40.1986 0 12.7786 7.44719 -2.2079 0 -4.4182 9.239 -8.39894e-006 2.2631e-006 4.39591e-006 9.4119 3.9773 -0.7758 15.2168 -36.5216 14.6162 0.7532 -40.9383 2.66454e-015 171.737 42.1974 -172.072 7.10543e-015 -40.1986 7.10543e-015 13.8312 -0.91818 15.7537 0 -4.4182 9.239 -8.41985e-007 -1.01325e-006 -4.24802e-008 
-75.6599 4.32639 7.84142 -180 -85.9956 -180 0 8.7983 -4.7612 -0.403118 2.71443 -0.163683 0 8.0291 0.4195 -0.799808 5.42993 -0.308739 0 9.9351 -2.2114 -0.799809 5.42991 -0.308739 0 22.3885 -0.4656 -3.46298e-006 28.9971 -1.69131e-006 -0.0001 12.643 3.4389 4.72949 29.0021 -2.34598 2.2603 21.606 7.4023 18.5544 3.61515 -10.9752 13.5163 -1.1332 -5.0146 127.238 14.7689 5.50311 -0.0995 -28.05 -0.2431 -130.766 -60.2161 -118.802 0.0679 -23.3996 -0.1402 -36.5133 -3.92863 49.2832 0.7932 -9.069 2.5189 -3.18055e-015 -1.59028e-015 -0 -0.8272 -3.3923 0.5977 8.82781e-032 6.36111e-015 -7.95139e-016 -0.5649 -2.3158 0.4082 -3.18055e-015 0 5.56597e-015 0.9159 -9.2044 0.2193 -3.18055e-015 -1.59028e-015 -0 0.0117 -4.1944 -0.0248 -0.012819 0.00232751 8.9539e-005 0.0071 -2.3249 -0.0142 1.27222e-014 1.59028e-015 1.59028e-015 0.6113 -8.7231 -2.0637 -3.18055e-015 -1.59028e-015 -0 -0.1927 -3.8059 -0.2383 -0.0160055 0.00298795 0.000863827 -0.1091 -2.1688 -0.1362 3.18055e-015 -3.18055e-015 7.95139e-016 -0.6151 -8.0947 -3.5641 -3.18055e-015 -1.59028e-015 -0 -0.4882 -2.341 -0.6462 -0.0125717 0.00313541 0.00282611 -0.3575 -1.7167 -0.4742 6.36111e-015 6.36111e-015 6.36111e-015 -1.42 -1.8761 1.4223 -3.18055e-015 -1.59028e-015 -0 -1.1471 -3.4929 2.6334 8.82781e-032 6.36111e-015 -7.95139e-016 -0.823 -2.3 1.6571 -3.18055e-015 0 5.56597e-015 -2.2603 21.606 7.4023 -21.2155 3.21497 7.20713 -13.5187 -1.1334 -5.0155 -122.659 9.00815 -8.44723 0.0994 -28.0499 -0.2431 100.124 -65.0005 91.0825 -0.0679 -23.3996 -0.1402 38.2852 -11.7133 -43.3687 -0.7932 -9.0691 2.5189 -4.51771e-006 -1.02029e-005 4.42268e-006 0.8272 -3.3923 0.5977 4.51771e-006 1.06806e-005 -4.42268e-006 0.565 -2.3158 0.4082 6.36111e-015 6.36111e-015 -1.59028e-015 -0.916 -9.2044 0.2193 -4.51771e-006 -1.02029e-005 4.42268e-006 -0.0117 -4.1944 -0.0248 0.0129569 0.00232059 -9.05597e-005 -0.0071 -2.3249 -0.0142 9.54166e-015 -6.36111e-015 1.59028e-015 -0.6113 -8.7231 -2.0637 -4.51771e-006 -1.02029e-005 4.42268e-006 0.1927 -3.8059 -0.2383 0.0163426 0.00303888 -0.000881572 0.1091 -2.1688 -0.1362 2.64834e-031 -4.77083e-015 3.18055e-015 0.6151 -8.0947 -3.564 -4.51771e-006 -1.02029e-005 4.42268e-006 0.4882 -2.341 -0.6462 0.0145688 0.00367505 -0.0032658 0.3574 -1.7166 -0.4742 1.23589e-030 1.11319e-014 -6.36111e-015 1.4199 -1.8761 1.4221 -4.51771e-006 -1.02029e-005 4.42268e-006 1.1472 -3.4929 2.6336 4.51771e-006 1.06806e-005 -4.42268e-006 0.8229 -2.3 1.6571 6.36111e-015 6.36111e-015 -1.59028e-015 -9.412 3.9771 -0.7758 -12.8179 -30.0612 -8.09556 -0.7531 -40.938 3.10862e-015 158.91 65.3613 -164.596 0 -40.1986 7.10543e-015 12.2375 7.45012 -1.86998 0 -4.4182 9.239 2.18663e-015 -3.18055e-015 -1.59028e-015 9.4119 3.9773 -0.7758 15.6533 -36.527 14.9581 0.7532 -40.9383 -4.44089e-015 171.737 42.196 -172.08 7.10543e-015 -40.1986 -7.10543e-015 14.1744 -0.895207 15.58 0 -4.4182 9.239 -5.88852e-007 2.95242e-007 3.43451e-006 
-75.6597 4.32655 7.84146 180 -85.9956 180 1.42109e-014 8.7983 -4.7612 -0.390876 2.74516 -0.162313 -1.42109e-014 8.0291 0.4195 -0.775292 5.49133 -0.306377 0 9.9351 -2.2114 -0.775292 5.49136 -0.306377 0 22.3885 -0.4656 -2.21578e-006 28.997 -1.15728e-006 -0.0001 12.643 3.4389 4.47639 28.4704 -2.20242 2.2603 21.606 7.4023 18.7845 3.44806 -10.8221 13.5163 -1.1332 -5.0146 126.94 14.6495 5.51053 -0.0995 -28.05 -0.2431 -129.465 -60.5576 -117.659 0.0679 -23.3996 -0.1402 -36.4307 -4.50169 48.8462 0.7932 -9.069 2.5189 -3.06416e-006 8.80624e-006 -2.62019e-006 -0.8272 -3.3923 0.5977 3.18055e-015 0 3.18055e-015 -0.5649 -2.3158 0.4082 3.06416e-006 2.13423e-007 2.6202e-006 0.9159 -9.2044 0.2193 -3.06416e-006 8.80624e-006 -2.62019e-006 0.0117 -4.1944 -0.0248 -0.0127758 0.00231535 8.68932e-005 0.0071 -2.3249 -0.0142 5.16852e-006 -3.27532e-006 -7.96543e-006 0.6113 -8.7231 -2.0637 -3.06416e-006 8.80624e-006 -2.62019e-006 -0.1927 -3.8059 -0.2383 -0.0160724 0.00298706 0.000862345 -0.1091 -2.1688 -0.1362 8.35585e-007 1.47618e-005 -9.89739e-006 -0.6151 -8.0947 -3.5641 -3.06416e-006 8.80624e-006 -2.62019e-006 -0.4882 -2.341 -0.6462 -0.0125974 0.00312201 0.00283393 -0.3575 -1.7167 -0.4742 2.68626e-006 -7.79487e-006 -4.1848e-006 -1.42 -1.8761 1.4223 -3.06416e-006 8.80624e-006 -2.62019e-006 -1.1471 -3.4929 2.6334 3.18055e-015 0 3.18055e-015 -0.823 -2.3 1.6571 3.06416e-006 2.13423e-007 2.6202e-006 -2.2603 21.606 7.4023 -21.3562 3.07939 6.96822 -13.5187 -1.1334 -5.0155 -122.56 9.01733 -8.44408 0.0994 -28.0499 -0.2431 100.132 -65.0002 91.0866 -0.0679 -23.3996 -0.1402 38.2135 -11.8832 -43.1785 -0.7932 -9.0691 2.5189 -1.59028e-014 -3.18055e-015 -4.77083e-015 0.8272 -3.3923 0.5977 3.18055e-015 -1.59028e-015 6.36111e-015 0.565 -2.3158 0.4082 -5.71791e-006 2.90661e-006 -3.79245e-006 -0.916 -9.2044 0.2193 -1.59028e-014 -3.18055e-015 -4.77083e-015 -0.0117 -4.1944 -0.0248 0.0129573 0.00231569 -9.37532e-005 -0.0071 -2.3249 -0.0142 -7.84106e-006 -5.34537e-006 1.26311e-005 -0.6113 -8.7231 -2.0637 -1.59028e-014 -3.18055e-015 -4.77083e-015 0.1927 -3.8059 -0.2383 0.016325 0.0030309 -0.000882476 0.1091 -2.1688 -0.1362 -4.50799e-006 -7.34104e-007 4.43228e-006 0.6151 -8.0947 -3.564 -1.59028e-014 -3.18055e-015 -4.77083e-015 0.4882 -2.341 -0.6462 0.0145506 0.00366346 -0.00325698 0.3574 -1.7166 -0.4742 6.03312e-006 1.60522e-005 -2.93685e-006 1.4199 -1.8761 1.4221 -1.59028e-014 -3.18055e-015 -4.77083e-015 1.1472 -3.4929 2.6336 3.18055e-015 -1.59028e-015 6.36111e-015 0.8229 -2.3 1.6571 -5.71791e-006 2.90661e-006 -3.79245e-006 -9.412 3.9771 -0.7758 -13.3077 -29.9429 -8.62345 -0.7531 -40.938 4.88498e-015 158.909 65.3625 -164.595 1.42109e-014 -40.1986 0 11.7504 7.4499 -1.56578 -1.42109e-014 -4.4182 9.239 -6.55989e-015 0 3.18055e-015 9.4119 3.9773 -0.7758 16.0462 -36.53 15.2657 0.7532 -40.9383 2.66454e-015 171.738 42.1945 -172.088 7.10543e-015 -40.1986 -3.55271e-015 14.4833 -0.875559 15.4236 0 -4.4182 9.239 1.19271e-015 -2.38542e-015 -9.54166e-015 
-75.6595 4.32671 7.8415 -180 -85.9956 -180 0 8.7983 -4.7612 -0.378638 2.77591 -0.160911 0 8.0291 0.4195 -0.750784 5.55282 -0.303965 0 9.9351 -2.2114 -0.750784 5.5528 -0.303965 0 22.3885 -0.4656 -2.76228e-006 28.997 -1.96677e-006 -0.0001 12.643 3.4389 4.22595 27.9379 -2.06218 2.2603 21.606 7.4023 19.015 3.28168 -10.6683 13.5163 -1.1332 -5.0146 126.636 14.527 5.51906 -0.0995 -28.05 -0.2431 -128.127 -60.8876 -116.483 0.0679 -23.3996 -0.1402 -36.3522 -5.07577 48.4093 0.7932 -9.069 2.5189 3.18055e-015 -4.77083e-015 7.95139e-016 -0.8272 -3.3923 0.5977 -6.36111e-015 -4.77083e-015 -3.18055e-015 -0.5649 -2.3158 0.4082 3.18055e-015 -3.18055e-015 -2.38542e-015 0.9159 -9.2044 0.2193 3.18055e-015 -4.77083e-015 7.95139e-016 0.0117 -4.1944 -0.0248 -0.0128027 0.0023224 8.14529e-005 0.0071 -2.3249 -0.0142 -3.18055e-015 -1.59028e-015 3.18055e-015 0.6113 -8.7231 -2.0637 3.18055e-015 -4.77083e-015 7.95139e-016 -0.1927 -3.8059 -0.2383 -0.0160744 0.00299894 0.000853562 -0.1091 -2.1688 -0.1362 -6.36111e-015 1.59028e-015 -7.95139e-015 -0.6151 -8.0947 -3.5641 3.18055e-015 -4.77083e-015 7.95139e-016 -0.4882 -2.341 -0.6462 -0.0125569 0.00312068 0.00280746 -0.3575 -1.7167 -0.4742 9.54166e-015 1.90833e-014 3.97569e-015 -1.42 -1.8761 1.4223 3.18055e-015 -4.77083e-015 7.95139e-016 -1.1471 -3.4929 2.6334 -6.36111e-015 -4.77083e-015 -3.18055e-015 -0.823 -2.3 1.6571 3.18055e-015 -3.18055e-015 -2.38542e-015 -2.2603 21.606 7.4023 -21.4975 2.94438 6.72899 -13.5187 -1.1334 -5.0155 -122.455 9.02294 -8.44198 0.0994 -28.0499 -0.2431 100.128 -65.0004 91.0845 -0.0679 -23.3996 -0.1402 38.1424 -12.0533 -42.9883 -0.7932 -9.0691 2.5189 3.18055e-015 0 -1.59028e-015 0.8272 -3.3923 0.5977 -3.18055e-015 -7.95139e-015 -0 0.565 -2.3158 0.4082 -3.18055e-015 -7.95139e-015 4.77083e-015 -0.916 -9.2044 0.2193 3.18055e-015 0 -1.59028e-015 -0.0117 -4.1944 -0.0248 0.0129689 0.00229704 -8.0988e-005 -0.0071 -2.3249 -0.0142 3.18055e-015 -1.59028e-015 -0 -0.6113 -8.7231 -2.0637 3.18055e-015 0 -1.59028e-015 0.1927 -3.8059 -0.2383 0.0163501 0.00303453 -0.000867778 0.1091 -2.1688 -0.1362 -0 0 3.18055e-015 0.6151 -8.0947 -3.564 3.18055e-015 0 -1.59028e-015 0.4882 -2.341 -0.6462 0.0145507 0.00364851 -0.0032464 0.3574 -1.7166 -0.4742 7.16887e-006 -5.60382e-007 -3.64066e-006 1.4199 -1.8761 1.4221 3.18055e-015 0 -1.59028e-015 1.1472 -3.4929 2.6336 -3.18055e-015 -7.95139e-015 -0 0.8229 -2.3 1.6571 -3.18055e-015 -7.95139e-015 4.77083e-015 -9.412 3.9771 -0.7758 -13.7956 -29.8212 -9.14957 -0.7531 -40.938 -4.44089e-016 158.909 65.3631 -164.594 1.42109e-014 -40.1986 -7.10543e-015 11.2631 7.44705 -1.26153 1.42109e-014 -4.4182 9.239 3.21641e-006 3.37538e-007 1.52013e-006 9.4119 3.9773 -0.7758 16.4392 -36.5312 15.5735 0.7532 -40.9383 -1.77636e-015 171.738 42.1934 -172.095 0 -40.1986 -3.55271e-015 14.7923 -0.856576 15.267 0 -4.4182 9.239 3.59577e-007 9.90435e-007 8.5372e-006 
